<svg xmlns="http://www.w3.org/2000/svg" viewBox="0 0 229.47 173.76"><defs><style>.cls-1{fill:#01273f;}.cls-2,.cls-3{fill:#013759;}.cls-3{fill-rule:evenodd;}.cls-4{fill:#1c2b3f;}</style></defs><g id="Camada_2" data-name="Camada 2"><g id="Layer_1" data-name="Layer 1"><path class="cls-1" d="M164.35,57.61l18.44-17.82a7.89,7.89,0,0,0-1-12.15c-8-5.5-20.19-14.58-28.68-23.87a7.87,7.87,0,0,0-13,2.14c-8.32,18.79-23.89,56.16-32.38,90.46A44.84,44.84,0,0,0,110.11,125l.42,1c1.73,4,3.46,8.09,5.17,12.27a7.88,7.88,0,0,0,13,2.44c12-12.71,30.15-28.84,53.91-41.1a7.88,7.88,0,0,0,1.66-12.91L164.59,69.17A7.88,7.88,0,0,1,164.35,57.61ZM119.16,114.3a5.93,5.93,0,0,1-5.93-6.24,5.94,5.94,0,1,1,5.93,6.24Z"/><path class="cls-2" d="M96.09,170.4C76.57,150.29,49.66,128,15.73,112.58a10.85,10.85,0,0,1-4.48-16L25.71,75.33a10.86,10.86,0,0,0-2.82-15L4.7,47.78A10.86,10.86,0,0,1,3.38,31,140.59,140.59,0,0,0,19.16,13.18a10.85,10.85,0,0,1,17.44,0C50.27,31.6,76.65,70.88,102.06,129.61q5.94,13.68,11.73,28.81l.21.55C118.2,170,104.29,178.85,96.09,170.4Z"/><path class="cls-3" d="M66.86,1.09C57.28,3,64.35,26.71,71,29.17S83.7,20.82,83.7,20.82,84.2,26,88.17,26c4.46,0,4.82-4.5,4.82-4.5s5.75,10.68,11.9,9.08c5.15-1.33,6.67-7.63,7.22-13.95S111.93,1.87,107.48.28C101.07-2,92.9,10.47,92.9,10.47s-2-5.6-6.44-4.48c-2.48.63-2.8,4.48-2.8,4.48S73.43-.21,66.86,1.09Z"/><path class="cls-4" d="M204,16.05V4.79h-4.15V1.21h12.28V4.79H208V16.05Zm21.54,0V11c0-1.13,0-2.31.1-3.53l-.1-.06a33,33,0,0,1-1.89,2.82l-1.9,2.61-1.89-2.61A30.82,30.82,0,0,1,218,7.45l-.11.06c.07,1.22.11,2.4.11,3.53v5h-3.84V1.21h3.68l4,5.48,3.94-5.48h3.74V16.05Z"/></g></g></svg>